<?xml version="1.0" standalone="no"?>
<!DOCTYPE svg PUBLIC "-//W3C//DTD SVG 20010904//EN"
 "http://www.w3.org/TR/2001/REC-SVG-20010904/DTD/svg10.dtd">
<svg version="1.0" xmlns="http://www.w3.org/2000/svg"
 width="295.000000pt" height="295.000000pt" viewBox="0 0 295.000000 295.000000"
 preserveAspectRatio="xMidYMid meet">
<metadata>
Created by potrace 1.15, written by Peter Selinger 2001-2017
</metadata>
<g transform="translate(0.000000,295.000000) scale(0.100000,-0.100000)"
fill="#000000" stroke="none">
<path d="M1394 2919 c-130 -27 -281 -82 -414 -150 -390 -200 -680 -538 -820
-956 -105 -313 -112 -679 -20 -953 140 -416 478 -714 920 -811 87 -20 134 -23
275 -23 293 0 511 50 755 173 52 27 109 56 126 66 l31 19 -55 118 c-31 65 -59
118 -62 118 -4 0 -43 -20 -86 -45 -100 -56 -257 -119 -382 -152 -89 -25 -113
-27 -297 -27 -190 0 -204 1 -288 27 -162 50 -277 117 -396 231 -210 202 -315
491 -298 826 31 610 421 1118 974 1267 91 25 113 27 303 27 198 0 209 -1 320
-31 149 -40 268 -91 371 -159 45 -29 83 -53 84 -51 1 1 35 53 75 116 l72 114
-24 19 c-40 31 -170 104 -243 136 -100 44 -214 79 -326 102 -136 28 -461 28
-595 -1z"/>
<path d="M1060 1802 c-123 -41 -168 -85 -201 -193 -57 -187 45 -347 245 -389
90 -19 173 6 244 74 59 55 77 100 77 196 0 71 -4 94 -26 141 -70 149 -203 216
-339 171z"/>
<path d="M1715 1796 c-205 -96 -251 -327 -99 -495 60 -67 104 -86 204 -86 68
0 93 5 126 22 85 45 153 157 161 267 12 143 -58 251 -190 294 -86 28 -139 28
-202 -2z"/>
</g>
</svg>
